<svg width="20" height="20" viewBox="0 0 20 20" fill="none" xmlns="http://www.w3.org/2000/svg">
<path d="M8.29268 2.43884C8.48674 2.43884 8.67286 2.51593 8.81008 2.65315C8.9473 2.79037 9.02439 2.97649 9.02439 3.17055V10.9754H16.8293C17.0061 10.9754 17.1769 11.0395 17.3102 11.1557C17.4434 11.2719 17.5301 11.4324 17.5541 11.6076L17.561 11.7071C17.561 16.5559 13.6293 19.9998 8.78049 19.9998C6.45176 19.9998 4.21841 19.0747 2.57175 17.4281C0.925084 15.7814 0 13.5481 0 11.2193C0 6.37055 3.4439 2.43884 8.29268 2.43884ZM11.2195 -0.000183105C13.5482 -0.000183105 15.7816 0.924901 17.4283 2.57156C19.0749 4.21822 20 6.45157 20 8.7803C20 8.97437 19.9229 9.16048 19.7857 9.2977C19.6485 9.43492 19.4624 9.51201 19.2683 9.51201H11.2195C11.0255 9.51201 10.8393 9.43492 10.7021 9.2977C10.5649 9.16048 10.4878 8.97437 10.4878 8.7803V0.731524C10.4878 0.537463 10.5649 0.351351 10.7021 0.214129C10.8393 0.0769073 11.0255 -0.000183105 11.2195 -0.000183105Z" fill="white"/>
</svg>
