<svg width="20" height="20" viewBox="0 0 20 20" fill="none" xmlns="http://www.w3.org/2000/svg">
<path d="M11 -0.000183105V3.03741C14.39 3.52864 17 6.43591 17 9.97475C17 10.877 16.82 11.7291 16.52 12.5211L19.12 14.055C19.68 12.8118 20 11.4284 20 9.97475C20 4.78177 16.05 0.50107 11 -0.000183105ZM10 16.9923C6.13 16.9923 3 13.8545 3 9.97475C3 6.43591 5.61 3.52864 9 3.03741V-0.000183105C3.94 0.50107 0 4.77175 0 9.97475C0 15.5086 4.47 19.9998 9.99 19.9998C13.3 19.9998 16.23 18.3858 18.05 15.8996L15.45 14.3657C14.7976 15.1868 13.9686 15.8496 13.0249 16.3044C12.0812 16.7592 11.0471 16.9944 10 16.9923Z" fill="white"/>
</svg>
