<svg width="24" height="24" viewBox="0 0 24 24" fill="none" xmlns="http://www.w3.org/2000/svg">
<g clip-path="url(#clip0_1_60)">
<path d="M20.4481 20.449H16.8921V14.8799C16.8921 13.552 16.8684 11.8424 15.0426 11.8424C13.1905 11.8424 12.9071 13.2894 12.9071 14.7833V20.4486H9.35113V8.99648H12.7648V10.5615H12.8127C13.1543 9.97739 13.648 9.49683 14.2411 9.17105C14.8343 8.84528 15.5047 8.68648 16.1809 8.71157C19.7851 8.71157 20.4496 11.0823 20.4496 14.1665L20.4481 20.449ZM5.33863 7.43113C4.19891 7.43132 3.27481 6.50751 3.27463 5.36779C3.27444 4.22807 4.19816 3.30398 5.33788 3.30379C6.47759 3.30351 7.40169 4.22732 7.40188 5.36704C7.40197 5.91436 7.18466 6.4393 6.79772 6.82639C6.41079 7.21348 5.88594 7.43101 5.33863 7.43113ZM7.11669 20.4491H3.55691V8.99648H7.11659V20.449L7.11669 20.4491ZM22.2209 0.00125846H1.77003C0.803469 -0.00961654 0.010813 0.764665 -0.000999451 1.73123V22.2674C0.010438 23.2345 0.803 24.0095 1.76994 23.9994H22.2209C23.1899 24.0114 23.9856 23.2364 23.999 22.2674V1.72963C23.9852 0.761196 23.1895 -0.0129915 22.2209 -0.000335291" fill="white"/>
</g>
<defs>
<clipPath id="clip0_1_60">
<rect width="24" height="24" fill="white"/>
</clipPath>
</defs>
</svg>
